<mxfile host="app.diagrams.net" modified="2024-03-04T13:32:35.281Z" agent="Mozilla/5.0 (Macintosh; Intel Mac OS X 10_15_7) AppleWebKit/537.36 (KHTML, like Gecko) Chrome/121.0.0.0 Safari/537.36" etag="EcC9V9EswHXgfblBUvVU" version="24.0.1" type="google" pages="2">
  <diagram name="第 1 页" id="m02zfG9CnPa_G692fa9l">
    <mxGraphModel grid="1" page="1" gridSize="10" guides="1" tooltips="1" connect="1" arrows="1" fold="1" pageScale="1" pageWidth="1654" pageHeight="2336" math="0" shadow="0">
      <root>
        <mxCell id="0" />
        <mxCell id="1" parent="0" />
        <mxCell id="Q8WYOCpZJWo672pFzqNJ-1" value="Cinema" style="swimlane;fontStyle=1;childLayout=stackLayout;horizontal=1;startSize=26;horizontalStack=0;resizeParent=1;resizeParentMax=0;resizeLast=0;collapsible=1;marginBottom=0;align=center;fontSize=16;" vertex="1" parent="1">
          <mxGeometry x="20" y="20" width="160" height="146" as="geometry" />
        </mxCell>
        <mxCell id="Q8WYOCpZJWo672pFzqNJ-2" value="ID_cine &lt;&lt;PK&gt;&gt;" style="text;strokeColor=none;fillColor=none;spacingLeft=4;spacingRight=4;overflow=hidden;rotatable=0;points=[[0,0.5],[1,0.5]];portConstraint=eastwest;fontSize=12;fontStyle=1" vertex="1" parent="Q8WYOCpZJWo672pFzqNJ-1">
          <mxGeometry y="26" width="160" height="30" as="geometry" />
        </mxCell>
        <mxCell id="Q8WYOCpZJWo672pFzqNJ-3" value="Nom" style="text;strokeColor=none;fillColor=none;spacingLeft=4;spacingRight=4;overflow=hidden;rotatable=0;points=[[0,0.5],[1,0.5]];portConstraint=eastwest;fontSize=12;" vertex="1" parent="Q8WYOCpZJWo672pFzqNJ-1">
          <mxGeometry y="56" width="160" height="30" as="geometry" />
        </mxCell>
        <mxCell id="Q8WYOCpZJWo672pFzqNJ-5" value="Localisation" style="text;strokeColor=none;fillColor=none;spacingLeft=4;spacingRight=4;overflow=hidden;rotatable=0;points=[[0,0.5],[1,0.5]];portConstraint=eastwest;fontSize=12;" vertex="1" parent="Q8WYOCpZJWo672pFzqNJ-1">
          <mxGeometry y="86" width="160" height="30" as="geometry" />
        </mxCell>
        <mxCell id="Q8WYOCpZJWo672pFzqNJ-4" value="Nombre de salles" style="text;strokeColor=none;fillColor=none;spacingLeft=4;spacingRight=4;overflow=hidden;rotatable=0;points=[[0,0.5],[1,0.5]];portConstraint=eastwest;fontSize=12;" vertex="1" parent="Q8WYOCpZJWo672pFzqNJ-1">
          <mxGeometry y="116" width="160" height="30" as="geometry" />
        </mxCell>
        <mxCell id="Q8WYOCpZJWo672pFzqNJ-6" value="Programmation" style="swimlane;fontStyle=1;childLayout=stackLayout;horizontal=1;startSize=26;horizontalStack=0;resizeParent=1;resizeParentMax=0;resizeLast=0;collapsible=1;marginBottom=0;align=center;fontSize=16;" vertex="1" parent="1">
          <mxGeometry x="220" y="20" width="160" height="116" as="geometry" />
        </mxCell>
        <mxCell id="Q8WYOCpZJWo672pFzqNJ-7" value="ID_prog&lt;&lt;PK&gt;&gt;" style="text;strokeColor=none;fillColor=none;spacingLeft=4;spacingRight=4;overflow=hidden;rotatable=0;points=[[0,0.5],[1,0.5]];portConstraint=eastwest;fontSize=12;fontStyle=1" vertex="1" parent="Q8WYOCpZJWo672pFzqNJ-6">
          <mxGeometry y="26" width="160" height="30" as="geometry" />
        </mxCell>
        <mxCell id="Q8WYOCpZJWo672pFzqNJ-8" value="Date de debut" style="text;strokeColor=none;fillColor=none;spacingLeft=4;spacingRight=4;overflow=hidden;rotatable=0;points=[[0,0.5],[1,0.5]];portConstraint=eastwest;fontSize=12;" vertex="1" parent="Q8WYOCpZJWo672pFzqNJ-6">
          <mxGeometry y="56" width="160" height="30" as="geometry" />
        </mxCell>
        <mxCell id="Q8WYOCpZJWo672pFzqNJ-9" value="Fin de diffusion" style="text;strokeColor=none;fillColor=none;spacingLeft=4;spacingRight=4;overflow=hidden;rotatable=0;points=[[0,0.5],[1,0.5]];portConstraint=eastwest;fontSize=12;" vertex="1" parent="Q8WYOCpZJWo672pFzqNJ-6">
          <mxGeometry y="86" width="160" height="30" as="geometry" />
        </mxCell>
        <mxCell id="Q8WYOCpZJWo672pFzqNJ-11" value="Critique" style="swimlane;fontStyle=1;childLayout=stackLayout;horizontal=1;startSize=26;horizontalStack=0;resizeParent=1;resizeParentMax=0;resizeLast=0;collapsible=1;marginBottom=0;align=center;fontSize=16;" vertex="1" parent="1">
          <mxGeometry x="420" y="20" width="160" height="146" as="geometry" />
        </mxCell>
        <mxCell id="Q8WYOCpZJWo672pFzqNJ-12" value="ID_cri &lt;&lt;PK&gt;&gt;" style="text;strokeColor=none;fillColor=none;spacingLeft=4;spacingRight=4;overflow=hidden;rotatable=0;points=[[0,0.5],[1,0.5]];portConstraint=eastwest;fontSize=12;fontStyle=1" vertex="1" parent="Q8WYOCpZJWo672pFzqNJ-11">
          <mxGeometry y="26" width="160" height="30" as="geometry" />
        </mxCell>
        <mxCell id="Q8WYOCpZJWo672pFzqNJ-13" value="Provenance" style="text;strokeColor=none;fillColor=none;spacingLeft=4;spacingRight=4;overflow=hidden;rotatable=0;points=[[0,0.5],[1,0.5]];portConstraint=eastwest;fontSize=12;" vertex="1" parent="Q8WYOCpZJWo672pFzqNJ-11">
          <mxGeometry y="56" width="160" height="30" as="geometry" />
        </mxCell>
        <mxCell id="Q8WYOCpZJWo672pFzqNJ-14" value="Date de parution" style="text;strokeColor=none;fillColor=none;spacingLeft=4;spacingRight=4;overflow=hidden;rotatable=0;points=[[0,0.5],[1,0.5]];portConstraint=eastwest;fontSize=12;" vertex="1" parent="Q8WYOCpZJWo672pFzqNJ-11">
          <mxGeometry y="86" width="160" height="30" as="geometry" />
        </mxCell>
        <mxCell id="Q8WYOCpZJWo672pFzqNJ-15" value="Nombre etoiles" style="text;strokeColor=none;fillColor=none;spacingLeft=4;spacingRight=4;overflow=hidden;rotatable=0;points=[[0,0.5],[1,0.5]];portConstraint=eastwest;fontSize=12;" vertex="1" parent="Q8WYOCpZJWo672pFzqNJ-11">
          <mxGeometry y="116" width="160" height="30" as="geometry" />
        </mxCell>
        <mxCell id="Q8WYOCpZJWo672pFzqNJ-16" value="Genre" style="swimlane;fontStyle=1;childLayout=stackLayout;horizontal=1;startSize=26;horizontalStack=0;resizeParent=1;resizeParentMax=0;resizeLast=0;collapsible=1;marginBottom=0;align=center;fontSize=16;" vertex="1" parent="1">
          <mxGeometry x="610" y="20" width="160" height="116" as="geometry" />
        </mxCell>
        <mxCell id="Q8WYOCpZJWo672pFzqNJ-17" value="ID_gen &lt;&lt;PK&gt;&gt;" style="text;strokeColor=none;fillColor=none;spacingLeft=4;spacingRight=4;overflow=hidden;rotatable=0;points=[[0,0.5],[1,0.5]];portConstraint=eastwest;fontSize=12;fontStyle=1" vertex="1" parent="Q8WYOCpZJWo672pFzqNJ-16">
          <mxGeometry y="26" width="160" height="30" as="geometry" />
        </mxCell>
        <mxCell id="Q8WYOCpZJWo672pFzqNJ-18" value="Type" style="text;strokeColor=none;fillColor=none;spacingLeft=4;spacingRight=4;overflow=hidden;rotatable=0;points=[[0,0.5],[1,0.5]];portConstraint=eastwest;fontSize=12;" vertex="1" parent="Q8WYOCpZJWo672pFzqNJ-16">
          <mxGeometry y="56" width="160" height="30" as="geometry" />
        </mxCell>
        <mxCell id="Q8WYOCpZJWo672pFzqNJ-19" value="Public concerne" style="text;strokeColor=none;fillColor=none;spacingLeft=4;spacingRight=4;overflow=hidden;rotatable=0;points=[[0,0.5],[1,0.5]];portConstraint=eastwest;fontSize=12;" vertex="1" parent="Q8WYOCpZJWo672pFzqNJ-16">
          <mxGeometry y="86" width="160" height="30" as="geometry" />
        </mxCell>
        <mxCell id="Q8WYOCpZJWo672pFzqNJ-21" value="Film" style="swimlane;fontStyle=1;childLayout=stackLayout;horizontal=1;startSize=26;horizontalStack=0;resizeParent=1;resizeParentMax=0;resizeLast=0;collapsible=1;marginBottom=0;align=center;fontSize=16;" vertex="1" parent="1">
          <mxGeometry x="20" y="200" width="160" height="146" as="geometry" />
        </mxCell>
        <mxCell id="Q8WYOCpZJWo672pFzqNJ-22" value="ID_film&lt;&lt;PK&gt;&gt;" style="text;strokeColor=none;fillColor=none;spacingLeft=4;spacingRight=4;overflow=hidden;rotatable=0;points=[[0,0.5],[1,0.5]];portConstraint=eastwest;fontSize=12;fontStyle=1" vertex="1" parent="Q8WYOCpZJWo672pFzqNJ-21">
          <mxGeometry y="26" width="160" height="30" as="geometry" />
        </mxCell>
        <mxCell id="Q8WYOCpZJWo672pFzqNJ-23" value="Titre" style="text;strokeColor=none;fillColor=none;spacingLeft=4;spacingRight=4;overflow=hidden;rotatable=0;points=[[0,0.5],[1,0.5]];portConstraint=eastwest;fontSize=12;" vertex="1" parent="Q8WYOCpZJWo672pFzqNJ-21">
          <mxGeometry y="56" width="160" height="30" as="geometry" />
        </mxCell>
        <mxCell id="Q8WYOCpZJWo672pFzqNJ-24" value="Annee" style="text;strokeColor=none;fillColor=none;spacingLeft=4;spacingRight=4;overflow=hidden;rotatable=0;points=[[0,0.5],[1,0.5]];portConstraint=eastwest;fontSize=12;" vertex="1" parent="Q8WYOCpZJWo672pFzqNJ-21">
          <mxGeometry y="86" width="160" height="30" as="geometry" />
        </mxCell>
        <mxCell id="Q8WYOCpZJWo672pFzqNJ-25" value="Realisateur" style="text;strokeColor=none;fillColor=none;spacingLeft=4;spacingRight=4;overflow=hidden;rotatable=0;points=[[0,0.5],[1,0.5]];portConstraint=eastwest;fontSize=12;" vertex="1" parent="Q8WYOCpZJWo672pFzqNJ-21">
          <mxGeometry y="116" width="160" height="30" as="geometry" />
        </mxCell>
        <mxCell id="Q8WYOCpZJWo672pFzqNJ-26" value="Acteur" style="swimlane;fontStyle=1;childLayout=stackLayout;horizontal=1;startSize=26;horizontalStack=0;resizeParent=1;resizeParentMax=0;resizeLast=0;collapsible=1;marginBottom=0;align=center;fontSize=16;" vertex="1" parent="1">
          <mxGeometry x="220" y="200" width="160" height="146" as="geometry" />
        </mxCell>
        <mxCell id="Q8WYOCpZJWo672pFzqNJ-27" value="ID_act &lt;&lt;PK&gt;&gt;" style="text;strokeColor=none;fillColor=none;spacingLeft=4;spacingRight=4;overflow=hidden;rotatable=0;points=[[0,0.5],[1,0.5]];portConstraint=eastwest;fontSize=12;fontStyle=1" vertex="1" parent="Q8WYOCpZJWo672pFzqNJ-26">
          <mxGeometry y="26" width="160" height="30" as="geometry" />
        </mxCell>
        <mxCell id="Q8WYOCpZJWo672pFzqNJ-28" value="Nom" style="text;strokeColor=none;fillColor=none;spacingLeft=4;spacingRight=4;overflow=hidden;rotatable=0;points=[[0,0.5],[1,0.5]];portConstraint=eastwest;fontSize=12;" vertex="1" parent="Q8WYOCpZJWo672pFzqNJ-26">
          <mxGeometry y="56" width="160" height="30" as="geometry" />
        </mxCell>
        <mxCell id="Q8WYOCpZJWo672pFzqNJ-29" value="Prenom" style="text;strokeColor=none;fillColor=none;spacingLeft=4;spacingRight=4;overflow=hidden;rotatable=0;points=[[0,0.5],[1,0.5]];portConstraint=eastwest;fontSize=12;" vertex="1" parent="Q8WYOCpZJWo672pFzqNJ-26">
          <mxGeometry y="86" width="160" height="30" as="geometry" />
        </mxCell>
        <mxCell id="Q8WYOCpZJWo672pFzqNJ-30" value="Sex" style="text;strokeColor=none;fillColor=none;spacingLeft=4;spacingRight=4;overflow=hidden;rotatable=0;points=[[0,0.5],[1,0.5]];portConstraint=eastwest;fontSize=12;" vertex="1" parent="Q8WYOCpZJWo672pFzqNJ-26">
          <mxGeometry y="116" width="160" height="30" as="geometry" />
        </mxCell>
        <mxCell id="Q8WYOCpZJWo672pFzqNJ-32" value="Personnage" style="swimlane;fontStyle=1;childLayout=stackLayout;horizontal=1;startSize=26;horizontalStack=0;resizeParent=1;resizeParentMax=0;resizeLast=0;collapsible=1;marginBottom=0;align=center;fontSize=16;" vertex="1" parent="1">
          <mxGeometry x="414" y="200" width="160" height="116" as="geometry" />
        </mxCell>
        <mxCell id="Q8WYOCpZJWo672pFzqNJ-33" value="ID_per &lt;&lt;PK&gt;&gt;" style="text;strokeColor=none;fillColor=none;spacingLeft=4;spacingRight=4;overflow=hidden;rotatable=0;points=[[0,0.5],[1,0.5]];portConstraint=eastwest;fontSize=12;fontStyle=1" vertex="1" parent="Q8WYOCpZJWo672pFzqNJ-32">
          <mxGeometry y="26" width="160" height="30" as="geometry" />
        </mxCell>
        <mxCell id="Q8WYOCpZJWo672pFzqNJ-34" value="Nom" style="text;strokeColor=none;fillColor=none;spacingLeft=4;spacingRight=4;overflow=hidden;rotatable=0;points=[[0,0.5],[1,0.5]];portConstraint=eastwest;fontSize=12;" vertex="1" parent="Q8WYOCpZJWo672pFzqNJ-32">
          <mxGeometry y="56" width="160" height="30" as="geometry" />
        </mxCell>
        <mxCell id="Q8WYOCpZJWo672pFzqNJ-35" value="Prenom" style="text;strokeColor=none;fillColor=none;spacingLeft=4;spacingRight=4;overflow=hidden;rotatable=0;points=[[0,0.5],[1,0.5]];portConstraint=eastwest;fontSize=12;" vertex="1" parent="Q8WYOCpZJWo672pFzqNJ-32">
          <mxGeometry y="86" width="160" height="30" as="geometry" />
        </mxCell>
        <mxCell id="Q8WYOCpZJWo672pFzqNJ-37" value="Role" style="swimlane;fontStyle=1;childLayout=stackLayout;horizontal=1;startSize=26;horizontalStack=0;resizeParent=1;resizeParentMax=0;resizeLast=0;collapsible=1;marginBottom=0;align=center;fontSize=16;" vertex="1" parent="1">
          <mxGeometry x="610" y="200" width="160" height="116" as="geometry" />
        </mxCell>
        <mxCell id="Q8WYOCpZJWo672pFzqNJ-38" value="ID_role &lt;&lt;PK&gt;&gt;" style="text;strokeColor=none;fillColor=none;spacingLeft=4;spacingRight=4;overflow=hidden;rotatable=0;points=[[0,0.5],[1,0.5]];portConstraint=eastwest;fontSize=12;fontStyle=1" vertex="1" parent="Q8WYOCpZJWo672pFzqNJ-37">
          <mxGeometry y="26" width="160" height="30" as="geometry" />
        </mxCell>
        <mxCell id="Q8WYOCpZJWo672pFzqNJ-39" value="Type" style="text;strokeColor=none;fillColor=none;spacingLeft=4;spacingRight=4;overflow=hidden;rotatable=0;points=[[0,0.5],[1,0.5]];portConstraint=eastwest;fontSize=12;" vertex="1" parent="Q8WYOCpZJWo672pFzqNJ-37">
          <mxGeometry y="56" width="160" height="30" as="geometry" />
        </mxCell>
        <mxCell id="Q8WYOCpZJWo672pFzqNJ-40" value="Raison sociale" style="text;strokeColor=none;fillColor=none;spacingLeft=4;spacingRight=4;overflow=hidden;rotatable=0;points=[[0,0.5],[1,0.5]];portConstraint=eastwest;fontSize=12;" vertex="1" parent="Q8WYOCpZJWo672pFzqNJ-37">
          <mxGeometry y="86" width="160" height="30" as="geometry" />
        </mxCell>
        <mxCell id="Q8WYOCpZJWo672pFzqNJ-43" value="Cinema" style="swimlane;fontStyle=1;childLayout=stackLayout;horizontal=1;startSize=26;horizontalStack=0;resizeParent=1;resizeParentMax=0;resizeLast=0;collapsible=1;marginBottom=0;align=center;fontSize=16;" vertex="1" parent="1">
          <mxGeometry x="50" y="490" width="160" height="146" as="geometry" />
        </mxCell>
        <mxCell id="Q8WYOCpZJWo672pFzqNJ-44" value="ID_cine &lt;&lt;PK&gt;&gt;" style="text;strokeColor=none;fillColor=none;spacingLeft=4;spacingRight=4;overflow=hidden;rotatable=0;points=[[0,0.5],[1,0.5]];portConstraint=eastwest;fontSize=12;fontStyle=1" vertex="1" parent="Q8WYOCpZJWo672pFzqNJ-43">
          <mxGeometry y="26" width="160" height="30" as="geometry" />
        </mxCell>
        <mxCell id="Q8WYOCpZJWo672pFzqNJ-45" value="Nom" style="text;strokeColor=none;fillColor=none;spacingLeft=4;spacingRight=4;overflow=hidden;rotatable=0;points=[[0,0.5],[1,0.5]];portConstraint=eastwest;fontSize=12;" vertex="1" parent="Q8WYOCpZJWo672pFzqNJ-43">
          <mxGeometry y="56" width="160" height="30" as="geometry" />
        </mxCell>
        <mxCell id="Q8WYOCpZJWo672pFzqNJ-46" value="Localisation" style="text;strokeColor=none;fillColor=none;spacingLeft=4;spacingRight=4;overflow=hidden;rotatable=0;points=[[0,0.5],[1,0.5]];portConstraint=eastwest;fontSize=12;" vertex="1" parent="Q8WYOCpZJWo672pFzqNJ-43">
          <mxGeometry y="86" width="160" height="30" as="geometry" />
        </mxCell>
        <mxCell id="Q8WYOCpZJWo672pFzqNJ-47" value="Nombre de salles" style="text;strokeColor=none;fillColor=none;spacingLeft=4;spacingRight=4;overflow=hidden;rotatable=0;points=[[0,0.5],[1,0.5]];portConstraint=eastwest;fontSize=12;" vertex="1" parent="Q8WYOCpZJWo672pFzqNJ-43">
          <mxGeometry y="116" width="160" height="30" as="geometry" />
        </mxCell>
        <mxCell id="O6tbqFF-RhnBbWUPv6-V-5" style="edgeStyle=orthogonalEdgeStyle;rounded=0;orthogonalLoop=1;jettySize=auto;html=1;exitX=1;exitY=0.75;exitDx=0;exitDy=0;entryX=0.5;entryY=0;entryDx=0;entryDy=0;endArrow=none;endFill=0;" edge="1" parent="1" source="Q8WYOCpZJWo672pFzqNJ-48" target="O6tbqFF-RhnBbWUPv6-V-2">
          <mxGeometry relative="1" as="geometry" />
        </mxCell>
        <mxCell id="Q8WYOCpZJWo672pFzqNJ-48" value="Film" style="swimlane;fontStyle=1;childLayout=stackLayout;horizontal=1;startSize=26;horizontalStack=0;resizeParent=1;resizeParentMax=0;resizeLast=0;collapsible=1;marginBottom=0;align=center;fontSize=16;" vertex="1" parent="1">
          <mxGeometry x="350" y="487" width="160" height="206" as="geometry" />
        </mxCell>
        <mxCell id="Q8WYOCpZJWo672pFzqNJ-49" value="ID_film&lt;&lt;PK&gt;&gt;" style="text;strokeColor=none;fillColor=none;spacingLeft=4;spacingRight=4;overflow=hidden;rotatable=0;points=[[0,0.5],[1,0.5]];portConstraint=eastwest;fontSize=12;fontStyle=1" vertex="1" parent="Q8WYOCpZJWo672pFzqNJ-48">
          <mxGeometry y="26" width="160" height="30" as="geometry" />
        </mxCell>
        <mxCell id="Q8WYOCpZJWo672pFzqNJ-50" value="Titre" style="text;strokeColor=none;fillColor=none;spacingLeft=4;spacingRight=4;overflow=hidden;rotatable=0;points=[[0,0.5],[1,0.5]];portConstraint=eastwest;fontSize=12;" vertex="1" parent="Q8WYOCpZJWo672pFzqNJ-48">
          <mxGeometry y="56" width="160" height="30" as="geometry" />
        </mxCell>
        <mxCell id="Q8WYOCpZJWo672pFzqNJ-51" value="Annee" style="text;strokeColor=none;fillColor=none;spacingLeft=4;spacingRight=4;overflow=hidden;rotatable=0;points=[[0,0.5],[1,0.5]];portConstraint=eastwest;fontSize=12;" vertex="1" parent="Q8WYOCpZJWo672pFzqNJ-48">
          <mxGeometry y="86" width="160" height="30" as="geometry" />
        </mxCell>
        <mxCell id="Q8WYOCpZJWo672pFzqNJ-52" value="Realisateur" style="text;strokeColor=none;fillColor=none;spacingLeft=4;spacingRight=4;overflow=hidden;rotatable=0;points=[[0,0.5],[1,0.5]];portConstraint=eastwest;fontSize=12;" vertex="1" parent="Q8WYOCpZJWo672pFzqNJ-48">
          <mxGeometry y="116" width="160" height="30" as="geometry" />
        </mxCell>
        <mxCell id="Q8WYOCpZJWo672pFzqNJ-60" value="Genre" style="text;strokeColor=none;fillColor=none;spacingLeft=4;spacingRight=4;overflow=hidden;rotatable=0;points=[[0,0.5],[1,0.5]];portConstraint=eastwest;fontSize=12;" vertex="1" parent="Q8WYOCpZJWo672pFzqNJ-48">
          <mxGeometry y="146" width="160" height="30" as="geometry" />
        </mxCell>
        <mxCell id="Q8WYOCpZJWo672pFzqNJ-61" value="Public concerne" style="text;strokeColor=none;fillColor=none;spacingLeft=4;spacingRight=4;overflow=hidden;rotatable=0;points=[[0,0.5],[1,0.5]];portConstraint=eastwest;fontSize=12;" vertex="1" parent="Q8WYOCpZJWo672pFzqNJ-48">
          <mxGeometry y="176" width="160" height="30" as="geometry" />
        </mxCell>
        <mxCell id="Q8WYOCpZJWo672pFzqNJ-53" value="Critique" style="swimlane;fontStyle=1;childLayout=stackLayout;horizontal=1;startSize=26;horizontalStack=0;resizeParent=1;resizeParentMax=0;resizeLast=0;collapsible=1;marginBottom=0;align=center;fontSize=16;" vertex="1" parent="1">
          <mxGeometry x="610" y="365" width="160" height="176" as="geometry">
            <mxRectangle x="590" y="370" width="100" height="30" as="alternateBounds" />
          </mxGeometry>
        </mxCell>
        <mxCell id="Q8WYOCpZJWo672pFzqNJ-54" value="ID_cri &lt;&lt;PK&gt;&gt;" style="text;strokeColor=none;fillColor=none;spacingLeft=4;spacingRight=4;overflow=hidden;rotatable=0;points=[[0,0.5],[1,0.5]];portConstraint=eastwest;fontSize=12;fontStyle=1" vertex="1" parent="Q8WYOCpZJWo672pFzqNJ-53">
          <mxGeometry y="26" width="160" height="30" as="geometry" />
        </mxCell>
        <mxCell id="Q8WYOCpZJWo672pFzqNJ-55" value="Provenance" style="text;strokeColor=none;fillColor=none;spacingLeft=4;spacingRight=4;overflow=hidden;rotatable=0;points=[[0,0.5],[1,0.5]];portConstraint=eastwest;fontSize=12;" vertex="1" parent="Q8WYOCpZJWo672pFzqNJ-53">
          <mxGeometry y="56" width="160" height="30" as="geometry" />
        </mxCell>
        <mxCell id="Q8WYOCpZJWo672pFzqNJ-56" value="Date de parution" style="text;strokeColor=none;fillColor=none;spacingLeft=4;spacingRight=4;overflow=hidden;rotatable=0;points=[[0,0.5],[1,0.5]];portConstraint=eastwest;fontSize=12;" vertex="1" parent="Q8WYOCpZJWo672pFzqNJ-53">
          <mxGeometry y="86" width="160" height="30" as="geometry" />
        </mxCell>
        <mxCell id="Q8WYOCpZJWo672pFzqNJ-57" value="Nombre etoiles" style="text;strokeColor=none;fillColor=none;spacingLeft=4;spacingRight=4;overflow=hidden;rotatable=0;points=[[0,0.5],[1,0.5]];portConstraint=eastwest;fontSize=12;" vertex="1" parent="Q8WYOCpZJWo672pFzqNJ-53">
          <mxGeometry y="116" width="160" height="30" as="geometry" />
        </mxCell>
        <mxCell id="O6tbqFF-RhnBbWUPv6-V-15" value="Ref_film &lt;&lt;FK&gt;&gt;" style="text;strokeColor=none;fillColor=none;spacingLeft=4;spacingRight=4;overflow=hidden;rotatable=0;points=[[0,0.5],[1,0.5]];portConstraint=eastwest;fontSize=12;" vertex="1" parent="Q8WYOCpZJWo672pFzqNJ-53">
          <mxGeometry y="146" width="160" height="30" as="geometry" />
        </mxCell>
        <mxCell id="Q8WYOCpZJWo672pFzqNJ-62" value="Programmation" style="swimlane;fontStyle=1;childLayout=stackLayout;horizontal=1;startSize=26;horizontalStack=0;resizeParent=1;resizeParentMax=0;resizeLast=0;collapsible=1;marginBottom=0;align=center;fontSize=16;" vertex="1" parent="1">
          <mxGeometry x="220" y="725" width="160" height="116" as="geometry" />
        </mxCell>
        <mxCell id="Q8WYOCpZJWo672pFzqNJ-63" value="ID_prog&lt;&lt;PK&gt;&gt;" style="text;strokeColor=none;fillColor=none;spacingLeft=4;spacingRight=4;overflow=hidden;rotatable=0;points=[[0,0.5],[1,0.5]];portConstraint=eastwest;fontSize=12;fontStyle=1" vertex="1" parent="Q8WYOCpZJWo672pFzqNJ-62">
          <mxGeometry y="26" width="160" height="30" as="geometry" />
        </mxCell>
        <mxCell id="Q8WYOCpZJWo672pFzqNJ-64" value="Date de debut" style="text;strokeColor=none;fillColor=none;spacingLeft=4;spacingRight=4;overflow=hidden;rotatable=0;points=[[0,0.5],[1,0.5]];portConstraint=eastwest;fontSize=12;" vertex="1" parent="Q8WYOCpZJWo672pFzqNJ-62">
          <mxGeometry y="56" width="160" height="30" as="geometry" />
        </mxCell>
        <mxCell id="Q8WYOCpZJWo672pFzqNJ-65" value="Fin de diffusion" style="text;strokeColor=none;fillColor=none;spacingLeft=4;spacingRight=4;overflow=hidden;rotatable=0;points=[[0,0.5],[1,0.5]];portConstraint=eastwest;fontSize=12;" vertex="1" parent="Q8WYOCpZJWo672pFzqNJ-62">
          <mxGeometry y="86" width="160" height="30" as="geometry" />
        </mxCell>
        <mxCell id="Q8WYOCpZJWo672pFzqNJ-66" value="Acteur" style="swimlane;fontStyle=1;childLayout=stackLayout;horizontal=1;startSize=26;horizontalStack=0;resizeParent=1;resizeParentMax=0;resizeLast=0;collapsible=1;marginBottom=0;align=center;fontSize=16;" vertex="1" parent="1">
          <mxGeometry x="950" y="762" width="160" height="146" as="geometry" />
        </mxCell>
        <mxCell id="Q8WYOCpZJWo672pFzqNJ-67" value="ID_act &lt;&lt;PK&gt;&gt;" style="text;strokeColor=none;fillColor=none;spacingLeft=4;spacingRight=4;overflow=hidden;rotatable=0;points=[[0,0.5],[1,0.5]];portConstraint=eastwest;fontSize=12;fontStyle=1" vertex="1" parent="Q8WYOCpZJWo672pFzqNJ-66">
          <mxGeometry y="26" width="160" height="30" as="geometry" />
        </mxCell>
        <mxCell id="Q8WYOCpZJWo672pFzqNJ-68" value="Nom" style="text;strokeColor=none;fillColor=none;spacingLeft=4;spacingRight=4;overflow=hidden;rotatable=0;points=[[0,0.5],[1,0.5]];portConstraint=eastwest;fontSize=12;" vertex="1" parent="Q8WYOCpZJWo672pFzqNJ-66">
          <mxGeometry y="56" width="160" height="30" as="geometry" />
        </mxCell>
        <mxCell id="Q8WYOCpZJWo672pFzqNJ-69" value="Prenom" style="text;strokeColor=none;fillColor=none;spacingLeft=4;spacingRight=4;overflow=hidden;rotatable=0;points=[[0,0.5],[1,0.5]];portConstraint=eastwest;fontSize=12;" vertex="1" parent="Q8WYOCpZJWo672pFzqNJ-66">
          <mxGeometry y="86" width="160" height="30" as="geometry" />
        </mxCell>
        <mxCell id="Q8WYOCpZJWo672pFzqNJ-70" value="sexe" style="text;strokeColor=none;fillColor=none;spacingLeft=4;spacingRight=4;overflow=hidden;rotatable=0;points=[[0,0.5],[1,0.5]];portConstraint=eastwest;fontSize=12;" vertex="1" parent="Q8WYOCpZJWo672pFzqNJ-66">
          <mxGeometry y="116" width="160" height="30" as="geometry" />
        </mxCell>
        <mxCell id="Q8WYOCpZJWo672pFzqNJ-75" value="Role" style="swimlane;fontStyle=1;childLayout=stackLayout;horizontal=1;startSize=26;horizontalStack=0;resizeParent=1;resizeParentMax=0;resizeLast=0;collapsible=1;marginBottom=0;align=center;fontSize=16;" vertex="1" parent="1">
          <mxGeometry x="490" y="1220" width="160" height="116" as="geometry" />
        </mxCell>
        <mxCell id="Q8WYOCpZJWo672pFzqNJ-76" value="ID_role &lt;&lt;PK&gt;&gt;" style="text;strokeColor=none;fillColor=none;spacingLeft=4;spacingRight=4;overflow=hidden;rotatable=0;points=[[0,0.5],[1,0.5]];portConstraint=eastwest;fontSize=12;fontStyle=1" vertex="1" parent="Q8WYOCpZJWo672pFzqNJ-75">
          <mxGeometry y="26" width="160" height="30" as="geometry" />
        </mxCell>
        <mxCell id="Q8WYOCpZJWo672pFzqNJ-77" value="Type" style="text;strokeColor=none;fillColor=none;spacingLeft=4;spacingRight=4;overflow=hidden;rotatable=0;points=[[0,0.5],[1,0.5]];portConstraint=eastwest;fontSize=12;" vertex="1" parent="Q8WYOCpZJWo672pFzqNJ-75">
          <mxGeometry y="56" width="160" height="30" as="geometry" />
        </mxCell>
        <mxCell id="Q8WYOCpZJWo672pFzqNJ-78" value="Raison sociale" style="text;strokeColor=none;fillColor=none;spacingLeft=4;spacingRight=4;overflow=hidden;rotatable=0;points=[[0,0.5],[1,0.5]];portConstraint=eastwest;fontSize=12;" vertex="1" parent="Q8WYOCpZJWo672pFzqNJ-75">
          <mxGeometry y="86" width="160" height="30" as="geometry" />
        </mxCell>
        <mxCell id="Q8WYOCpZJWo672pFzqNJ-79" value="" style="endArrow=none;html=1;rounded=0;entryX=1;entryY=0.5;entryDx=0;entryDy=0;exitX=0;exitY=0.5;exitDx=0;exitDy=0;" edge="1" parent="1" source="Q8WYOCpZJWo672pFzqNJ-50" target="Q8WYOCpZJWo672pFzqNJ-45">
          <mxGeometry width="50" height="50" relative="1" as="geometry">
            <mxPoint x="390" y="510" as="sourcePoint" />
            <mxPoint x="270" y="460" as="targetPoint" />
          </mxGeometry>
        </mxCell>
        <mxCell id="Q8WYOCpZJWo672pFzqNJ-80" value="" style="endArrow=none;html=1;rounded=0;entryX=0;entryY=0.5;entryDx=0;entryDy=0;exitX=1;exitY=0.5;exitDx=0;exitDy=0;" edge="1" parent="1" source="O6tbqFF-RhnBbWUPv6-V-2" target="Q8WYOCpZJWo672pFzqNJ-68">
          <mxGeometry width="50" height="50" relative="1" as="geometry">
            <mxPoint x="510" y="600" as="sourcePoint" />
            <mxPoint x="560" y="550" as="targetPoint" />
          </mxGeometry>
        </mxCell>
        <mxCell id="Q8WYOCpZJWo672pFzqNJ-109" value="" style="endArrow=none;html=1;rounded=0;" edge="1" parent="1">
          <mxGeometry width="50" height="50" relative="1" as="geometry">
            <mxPoint x="510" y="580" as="sourcePoint" />
            <mxPoint x="560" y="580" as="targetPoint" />
          </mxGeometry>
        </mxCell>
        <mxCell id="Q8WYOCpZJWo672pFzqNJ-110" value="" style="endArrow=none;html=1;rounded=0;" edge="1" parent="1">
          <mxGeometry width="50" height="50" relative="1" as="geometry">
            <mxPoint x="560" y="580" as="sourcePoint" />
            <mxPoint x="560" y="450" as="targetPoint" />
          </mxGeometry>
        </mxCell>
        <mxCell id="Q8WYOCpZJWo672pFzqNJ-112" value="" style="endArrow=none;html=1;rounded=0;" edge="1" parent="1">
          <mxGeometry width="50" height="50" relative="1" as="geometry">
            <mxPoint x="560" y="450" as="sourcePoint" />
            <mxPoint x="610" y="450" as="targetPoint" />
          </mxGeometry>
        </mxCell>
        <mxCell id="Q8WYOCpZJWo672pFzqNJ-114" value="" style="endArrow=none;dashed=1;html=1;dashPattern=1 3;strokeWidth=2;rounded=0;exitX=0.5;exitY=0;exitDx=0;exitDy=0;" edge="1" parent="1" source="Q8WYOCpZJWo672pFzqNJ-62">
          <mxGeometry width="50" height="50" relative="1" as="geometry">
            <mxPoint x="300" y="710" as="sourcePoint" />
            <mxPoint x="300" y="600" as="targetPoint" />
          </mxGeometry>
        </mxCell>
        <mxCell id="c2-_Ls5YU3K3Pn6S_Ufb-1" value="1...*" style="text;html=1;align=center;verticalAlign=middle;resizable=0;points=[];autosize=1;" vertex="1" parent="1">
          <mxGeometry x="910" y="800" width="40" height="30" as="geometry" />
        </mxCell>
        <mxCell id="c2-_Ls5YU3K3Pn6S_Ufb-2" value="1...*" style="text;html=1;align=center;verticalAlign=middle;resizable=0;points=[];autosize=1;" vertex="1" parent="1">
          <mxGeometry x="310" y="575" width="40" height="30" as="geometry" />
        </mxCell>
        <mxCell id="c2-_Ls5YU3K3Pn6S_Ufb-3" value="1...*" style="text;html=1;align=center;verticalAlign=middle;resizable=0;points=[];autosize=1;" vertex="1" parent="1">
          <mxGeometry x="250" y="575" width="40" height="30" as="geometry" />
        </mxCell>
        <mxCell id="c2-_Ls5YU3K3Pn6S_Ufb-4" value="1...*" style="text;html=1;align=center;verticalAlign=middle;resizable=0;points=[];autosize=1;" vertex="1" parent="1">
          <mxGeometry x="580" y="890" width="40" height="30" as="geometry" />
        </mxCell>
        <mxCell id="c2-_Ls5YU3K3Pn6S_Ufb-5" value="1" style="text;html=1;align=center;verticalAlign=middle;resizable=0;points=[];autosize=1;" vertex="1" parent="1">
          <mxGeometry x="420" y="480" width="30" height="30" as="geometry" />
        </mxCell>
        <mxCell id="c2-_Ls5YU3K3Pn6S_Ufb-6" value="0...*" style="text;html=1;align=center;verticalAlign=middle;resizable=0;points=[];autosize=1;" vertex="1" parent="1">
          <mxGeometry x="570" y="423" width="40" height="30" as="geometry" />
        </mxCell>
        <mxCell id="c2-_Ls5YU3K3Pn6S_Ufb-7" value="1...*" style="text;html=1;align=center;verticalAlign=middle;resizable=0;points=[];autosize=1;" vertex="1" parent="1">
          <mxGeometry x="570" y="710" width="40" height="30" as="geometry" />
        </mxCell>
        <mxCell id="c2-_Ls5YU3K3Pn6S_Ufb-10" value="1" style="text;html=1;align=center;verticalAlign=middle;resizable=0;points=[];autosize=1;" vertex="1" parent="1">
          <mxGeometry x="515" y="550" width="30" height="30" as="geometry" />
        </mxCell>
        <mxCell id="c2-_Ls5YU3K3Pn6S_Ufb-14" value="Definir" style="text;html=1;align=center;verticalAlign=middle;resizable=0;points=[];autosize=1;" vertex="1" parent="1">
          <mxGeometry x="250" y="646" width="60" height="30" as="geometry" />
        </mxCell>
        <mxCell id="c2-_Ls5YU3K3Pn6S_Ufb-15" value="Associer" style="text;html=1;align=center;verticalAlign=middle;resizable=0;points=[];autosize=1;" vertex="1" parent="1">
          <mxGeometry x="500" y="500" width="70" height="30" as="geometry" />
        </mxCell>
        <mxCell id="c2-_Ls5YU3K3Pn6S_Ufb-23" value="Jouer" style="text;html=1;align=center;verticalAlign=middle;resizable=0;points=[];autosize=1;" vertex="1" parent="1">
          <mxGeometry x="585" y="870" width="50" height="30" as="geometry" />
        </mxCell>
        <mxCell id="O6tbqFF-RhnBbWUPv6-V-13" style="edgeStyle=none;shape=connector;rounded=0;orthogonalLoop=1;jettySize=auto;html=1;exitX=0.5;exitY=1;exitDx=0;exitDy=0;entryX=0.5;entryY=0;entryDx=0;entryDy=0;labelBackgroundColor=default;strokeColor=default;align=center;verticalAlign=middle;fontFamily=Helvetica;fontSize=11;fontColor=default;endArrow=none;" edge="1" parent="1" source="O6tbqFF-RhnBbWUPv6-V-2" target="O6tbqFF-RhnBbWUPv6-V-9">
          <mxGeometry relative="1" as="geometry" />
        </mxCell>
        <mxCell id="O6tbqFF-RhnBbWUPv6-V-2" value="&lt;div&gt;&lt;b&gt;&lt;font style=&quot;font-size: 16px;&quot;&gt;Casting&lt;/font&gt;&lt;/b&gt;&lt;/div&gt;&lt;div&gt;ID_cast &amp;lt;&amp;lt;PK&amp;gt;&amp;gt;&lt;/div&gt;&lt;div&gt;Ref_film &amp;lt;&amp;lt;FK&amp;gt;&amp;gt;&lt;/div&gt;&lt;div&gt;Ref_act &amp;lt;&amp;lt;FK&amp;gt;&amp;gt;&lt;/div&gt;&lt;div&gt;Ref_per &amp;lt;&amp;lt;FK&amp;gt;&amp;gt;&lt;/div&gt;" style="rhombus;whiteSpace=wrap;html=1;" vertex="1" parent="1">
          <mxGeometry x="400" y="740" width="340" height="190" as="geometry" />
        </mxCell>
        <mxCell id="O6tbqFF-RhnBbWUPv6-V-6" value="1...*" style="text;html=1;align=center;verticalAlign=middle;resizable=0;points=[];autosize=1;" vertex="1" parent="1">
          <mxGeometry x="570" y="930" width="40" height="30" as="geometry" />
        </mxCell>
        <mxCell id="O6tbqFF-RhnBbWUPv6-V-7" value="1...*" style="text;html=1;align=center;verticalAlign=middle;resizable=0;points=[];autosize=1;" vertex="1" parent="1">
          <mxGeometry x="740" y="810" width="40" height="30" as="geometry" />
        </mxCell>
        <mxCell id="O6tbqFF-RhnBbWUPv6-V-8" value="1...*" style="text;html=1;align=center;verticalAlign=middle;resizable=0;points=[];autosize=1;" vertex="1" parent="1">
          <mxGeometry x="570" y="1000" width="40" height="30" as="geometry" />
        </mxCell>
        <mxCell id="O6tbqFF-RhnBbWUPv6-V-14" style="edgeStyle=none;shape=connector;rounded=0;orthogonalLoop=1;jettySize=auto;html=1;exitX=0.5;exitY=1;exitDx=0;exitDy=0;entryX=0.5;entryY=0;entryDx=0;entryDy=0;labelBackgroundColor=default;strokeColor=default;align=center;verticalAlign=middle;fontFamily=Helvetica;fontSize=11;fontColor=default;endArrow=none;" edge="1" parent="1" source="O6tbqFF-RhnBbWUPv6-V-9" target="Q8WYOCpZJWo672pFzqNJ-75">
          <mxGeometry relative="1" as="geometry" />
        </mxCell>
        <mxCell id="O6tbqFF-RhnBbWUPv6-V-9" value="Personnage" style="swimlane;fontStyle=1;childLayout=stackLayout;horizontal=1;startSize=26;horizontalStack=0;resizeParent=1;resizeParentMax=0;resizeLast=0;collapsible=1;marginBottom=0;align=center;fontSize=16;" vertex="1" parent="1">
          <mxGeometry x="490" y="1030" width="160" height="116" as="geometry" />
        </mxCell>
        <mxCell id="O6tbqFF-RhnBbWUPv6-V-10" value="ID_perso &lt;&lt;PK&gt;&gt;" style="text;strokeColor=none;fillColor=none;spacingLeft=4;spacingRight=4;overflow=hidden;rotatable=0;points=[[0,0.5],[1,0.5]];portConstraint=eastwest;fontSize=12;fontStyle=1" vertex="1" parent="O6tbqFF-RhnBbWUPv6-V-9">
          <mxGeometry y="26" width="160" height="30" as="geometry" />
        </mxCell>
        <mxCell id="O6tbqFF-RhnBbWUPv6-V-11" value="Nom" style="text;strokeColor=none;fillColor=none;spacingLeft=4;spacingRight=4;overflow=hidden;rotatable=0;points=[[0,0.5],[1,0.5]];portConstraint=eastwest;fontSize=12;" vertex="1" parent="O6tbqFF-RhnBbWUPv6-V-9">
          <mxGeometry y="56" width="160" height="30" as="geometry" />
        </mxCell>
        <mxCell id="O6tbqFF-RhnBbWUPv6-V-12" value="Prénom" style="text;strokeColor=none;fillColor=none;spacingLeft=4;spacingRight=4;overflow=hidden;rotatable=0;points=[[0,0.5],[1,0.5]];portConstraint=eastwest;fontSize=12;" vertex="1" parent="O6tbqFF-RhnBbWUPv6-V-9">
          <mxGeometry y="86" width="160" height="30" as="geometry" />
        </mxCell>
        <mxCell id="LdHFRgSeEKxCv7c_LU8b-7" value="" style="endArrow=none;dashed=1;html=1;dashPattern=1 3;strokeWidth=2;rounded=0;exitX=0.5;exitY=0;exitDx=0;exitDy=0;" edge="1" parent="1">
          <mxGeometry width="50" height="50" relative="1" as="geometry">
            <mxPoint x="299.38" y="685" as="sourcePoint" />
            <mxPoint x="299.38" y="560" as="targetPoint" />
          </mxGeometry>
        </mxCell>
      </root>
    </mxGraphModel>
  </diagram>
  <diagram id="Yqtyi7eKfCNtxO9okRjk" name="Page-2">
    <mxGraphModel grid="1" page="1" gridSize="10" guides="1" tooltips="1" connect="1" arrows="1" fold="1" pageScale="1" pageWidth="827" pageHeight="1169" math="0" shadow="0">
      <root>
        <mxCell id="0" />
        <mxCell id="1" parent="0" />
        <mxCell id="IsxfPacbKCR5MeKDaSaU-1" value="Cinema" style="swimlane;fontStyle=1;childLayout=stackLayout;horizontal=1;startSize=26;horizontalStack=0;resizeParent=1;resizeParentMax=0;resizeLast=0;collapsible=1;marginBottom=0;align=center;fontSize=16;" vertex="1" parent="1">
          <mxGeometry x="290" y="235" width="160" height="146" as="geometry" />
        </mxCell>
        <mxCell id="IsxfPacbKCR5MeKDaSaU-2" value="ID_cine &lt;&lt;PK&gt;&gt;" style="text;strokeColor=none;fillColor=none;spacingLeft=4;spacingRight=4;overflow=hidden;rotatable=0;points=[[0,0.5],[1,0.5]];portConstraint=eastwest;fontSize=12;fontStyle=1" vertex="1" parent="IsxfPacbKCR5MeKDaSaU-1">
          <mxGeometry y="26" width="160" height="30" as="geometry" />
        </mxCell>
        <mxCell id="IsxfPacbKCR5MeKDaSaU-3" value="Nom" style="text;strokeColor=none;fillColor=none;spacingLeft=4;spacingRight=4;overflow=hidden;rotatable=0;points=[[0,0.5],[1,0.5]];portConstraint=eastwest;fontSize=12;" vertex="1" parent="IsxfPacbKCR5MeKDaSaU-1">
          <mxGeometry y="56" width="160" height="30" as="geometry" />
        </mxCell>
        <mxCell id="IsxfPacbKCR5MeKDaSaU-4" value="Localisation" style="text;strokeColor=none;fillColor=none;spacingLeft=4;spacingRight=4;overflow=hidden;rotatable=0;points=[[0,0.5],[1,0.5]];portConstraint=eastwest;fontSize=12;" vertex="1" parent="IsxfPacbKCR5MeKDaSaU-1">
          <mxGeometry y="86" width="160" height="30" as="geometry" />
        </mxCell>
        <mxCell id="IsxfPacbKCR5MeKDaSaU-5" value="Nombre de salles" style="text;strokeColor=none;fillColor=none;spacingLeft=4;spacingRight=4;overflow=hidden;rotatable=0;points=[[0,0.5],[1,0.5]];portConstraint=eastwest;fontSize=12;" vertex="1" parent="IsxfPacbKCR5MeKDaSaU-1">
          <mxGeometry y="116" width="160" height="30" as="geometry" />
        </mxCell>
        <mxCell id="IsxfPacbKCR5MeKDaSaU-6" style="edgeStyle=orthogonalEdgeStyle;rounded=0;orthogonalLoop=1;jettySize=auto;html=1;exitX=1;exitY=0.75;exitDx=0;exitDy=0;entryX=0.5;entryY=0;entryDx=0;entryDy=0;endArrow=none;endFill=0;" edge="1" parent="1" source="IsxfPacbKCR5MeKDaSaU-7" target="IsxfPacbKCR5MeKDaSaU-51">
          <mxGeometry relative="1" as="geometry" />
        </mxCell>
        <mxCell id="IsxfPacbKCR5MeKDaSaU-7" value="Film" style="swimlane;fontStyle=1;childLayout=stackLayout;horizontal=1;startSize=26;horizontalStack=0;resizeParent=1;resizeParentMax=0;resizeLast=0;collapsible=1;marginBottom=0;align=center;fontSize=16;" vertex="1" parent="1">
          <mxGeometry x="590" y="232" width="160" height="206" as="geometry" />
        </mxCell>
        <mxCell id="IsxfPacbKCR5MeKDaSaU-8" value="ID_film&lt;&lt;PK&gt;&gt;" style="text;strokeColor=none;fillColor=none;spacingLeft=4;spacingRight=4;overflow=hidden;rotatable=0;points=[[0,0.5],[1,0.5]];portConstraint=eastwest;fontSize=12;fontStyle=1" vertex="1" parent="IsxfPacbKCR5MeKDaSaU-7">
          <mxGeometry y="26" width="160" height="30" as="geometry" />
        </mxCell>
        <mxCell id="IsxfPacbKCR5MeKDaSaU-9" value="Titre" style="text;strokeColor=none;fillColor=none;spacingLeft=4;spacingRight=4;overflow=hidden;rotatable=0;points=[[0,0.5],[1,0.5]];portConstraint=eastwest;fontSize=12;" vertex="1" parent="IsxfPacbKCR5MeKDaSaU-7">
          <mxGeometry y="56" width="160" height="30" as="geometry" />
        </mxCell>
        <mxCell id="IsxfPacbKCR5MeKDaSaU-10" value="Annee" style="text;strokeColor=none;fillColor=none;spacingLeft=4;spacingRight=4;overflow=hidden;rotatable=0;points=[[0,0.5],[1,0.5]];portConstraint=eastwest;fontSize=12;" vertex="1" parent="IsxfPacbKCR5MeKDaSaU-7">
          <mxGeometry y="86" width="160" height="30" as="geometry" />
        </mxCell>
        <mxCell id="IsxfPacbKCR5MeKDaSaU-11" value="Realisateur" style="text;strokeColor=none;fillColor=none;spacingLeft=4;spacingRight=4;overflow=hidden;rotatable=0;points=[[0,0.5],[1,0.5]];portConstraint=eastwest;fontSize=12;" vertex="1" parent="IsxfPacbKCR5MeKDaSaU-7">
          <mxGeometry y="116" width="160" height="30" as="geometry" />
        </mxCell>
        <mxCell id="IsxfPacbKCR5MeKDaSaU-12" value="Genre" style="text;strokeColor=none;fillColor=none;spacingLeft=4;spacingRight=4;overflow=hidden;rotatable=0;points=[[0,0.5],[1,0.5]];portConstraint=eastwest;fontSize=12;" vertex="1" parent="IsxfPacbKCR5MeKDaSaU-7">
          <mxGeometry y="146" width="160" height="30" as="geometry" />
        </mxCell>
        <mxCell id="IsxfPacbKCR5MeKDaSaU-13" value="Public concerne" style="text;strokeColor=none;fillColor=none;spacingLeft=4;spacingRight=4;overflow=hidden;rotatable=0;points=[[0,0.5],[1,0.5]];portConstraint=eastwest;fontSize=12;" vertex="1" parent="IsxfPacbKCR5MeKDaSaU-7">
          <mxGeometry y="176" width="160" height="30" as="geometry" />
        </mxCell>
        <mxCell id="IsxfPacbKCR5MeKDaSaU-14" value="Critique" style="swimlane;fontStyle=1;childLayout=stackLayout;horizontal=1;startSize=26;horizontalStack=0;resizeParent=1;resizeParentMax=0;resizeLast=0;collapsible=1;marginBottom=0;align=center;fontSize=16;" vertex="1" parent="1">
          <mxGeometry x="850" y="110" width="160" height="176" as="geometry">
            <mxRectangle x="590" y="370" width="100" height="30" as="alternateBounds" />
          </mxGeometry>
        </mxCell>
        <mxCell id="IsxfPacbKCR5MeKDaSaU-15" value="ID_cri &lt;&lt;PK&gt;&gt;" style="text;strokeColor=none;fillColor=none;spacingLeft=4;spacingRight=4;overflow=hidden;rotatable=0;points=[[0,0.5],[1,0.5]];portConstraint=eastwest;fontSize=12;fontStyle=1" vertex="1" parent="IsxfPacbKCR5MeKDaSaU-14">
          <mxGeometry y="26" width="160" height="30" as="geometry" />
        </mxCell>
        <mxCell id="IsxfPacbKCR5MeKDaSaU-16" value="Provenance" style="text;strokeColor=none;fillColor=none;spacingLeft=4;spacingRight=4;overflow=hidden;rotatable=0;points=[[0,0.5],[1,0.5]];portConstraint=eastwest;fontSize=12;" vertex="1" parent="IsxfPacbKCR5MeKDaSaU-14">
          <mxGeometry y="56" width="160" height="30" as="geometry" />
        </mxCell>
        <mxCell id="IsxfPacbKCR5MeKDaSaU-17" value="Date de parution" style="text;strokeColor=none;fillColor=none;spacingLeft=4;spacingRight=4;overflow=hidden;rotatable=0;points=[[0,0.5],[1,0.5]];portConstraint=eastwest;fontSize=12;" vertex="1" parent="IsxfPacbKCR5MeKDaSaU-14">
          <mxGeometry y="86" width="160" height="30" as="geometry" />
        </mxCell>
        <mxCell id="IsxfPacbKCR5MeKDaSaU-18" value="Nombre etoiles" style="text;strokeColor=none;fillColor=none;spacingLeft=4;spacingRight=4;overflow=hidden;rotatable=0;points=[[0,0.5],[1,0.5]];portConstraint=eastwest;fontSize=12;" vertex="1" parent="IsxfPacbKCR5MeKDaSaU-14">
          <mxGeometry y="116" width="160" height="30" as="geometry" />
        </mxCell>
        <mxCell id="IsxfPacbKCR5MeKDaSaU-19" value="Ref_film &lt;&lt;FK&gt;&gt;" style="text;strokeColor=none;fillColor=none;spacingLeft=4;spacingRight=4;overflow=hidden;rotatable=0;points=[[0,0.5],[1,0.5]];portConstraint=eastwest;fontSize=12;" vertex="1" parent="IsxfPacbKCR5MeKDaSaU-14">
          <mxGeometry y="146" width="160" height="30" as="geometry" />
        </mxCell>
        <mxCell id="IsxfPacbKCR5MeKDaSaU-20" value="Programmation" style="swimlane;fontStyle=1;childLayout=stackLayout;horizontal=1;startSize=26;horizontalStack=0;resizeParent=1;resizeParentMax=0;resizeLast=0;collapsible=1;marginBottom=0;align=center;fontSize=16;" vertex="1" parent="1">
          <mxGeometry x="460" y="470" width="160" height="116" as="geometry" />
        </mxCell>
        <mxCell id="IsxfPacbKCR5MeKDaSaU-21" value="ID_prog&lt;&lt;PK&gt;&gt;" style="text;strokeColor=none;fillColor=none;spacingLeft=4;spacingRight=4;overflow=hidden;rotatable=0;points=[[0,0.5],[1,0.5]];portConstraint=eastwest;fontSize=12;fontStyle=1" vertex="1" parent="IsxfPacbKCR5MeKDaSaU-20">
          <mxGeometry y="26" width="160" height="30" as="geometry" />
        </mxCell>
        <mxCell id="IsxfPacbKCR5MeKDaSaU-22" value="Date de debut" style="text;strokeColor=none;fillColor=none;spacingLeft=4;spacingRight=4;overflow=hidden;rotatable=0;points=[[0,0.5],[1,0.5]];portConstraint=eastwest;fontSize=12;" vertex="1" parent="IsxfPacbKCR5MeKDaSaU-20">
          <mxGeometry y="56" width="160" height="30" as="geometry" />
        </mxCell>
        <mxCell id="IsxfPacbKCR5MeKDaSaU-23" value="Fin de diffusion" style="text;strokeColor=none;fillColor=none;spacingLeft=4;spacingRight=4;overflow=hidden;rotatable=0;points=[[0,0.5],[1,0.5]];portConstraint=eastwest;fontSize=12;" vertex="1" parent="IsxfPacbKCR5MeKDaSaU-20">
          <mxGeometry y="86" width="160" height="30" as="geometry" />
        </mxCell>
        <mxCell id="IsxfPacbKCR5MeKDaSaU-24" value="Acteur" style="swimlane;fontStyle=1;childLayout=stackLayout;horizontal=1;startSize=26;horizontalStack=0;resizeParent=1;resizeParentMax=0;resizeLast=0;collapsible=1;marginBottom=0;align=center;fontSize=16;" vertex="1" parent="1">
          <mxGeometry x="1190" y="507" width="160" height="146" as="geometry" />
        </mxCell>
        <mxCell id="IsxfPacbKCR5MeKDaSaU-25" value="ID_act &lt;&lt;PK&gt;&gt;" style="text;strokeColor=none;fillColor=none;spacingLeft=4;spacingRight=4;overflow=hidden;rotatable=0;points=[[0,0.5],[1,0.5]];portConstraint=eastwest;fontSize=12;fontStyle=1" vertex="1" parent="IsxfPacbKCR5MeKDaSaU-24">
          <mxGeometry y="26" width="160" height="30" as="geometry" />
        </mxCell>
        <mxCell id="IsxfPacbKCR5MeKDaSaU-26" value="Nom" style="text;strokeColor=none;fillColor=none;spacingLeft=4;spacingRight=4;overflow=hidden;rotatable=0;points=[[0,0.5],[1,0.5]];portConstraint=eastwest;fontSize=12;" vertex="1" parent="IsxfPacbKCR5MeKDaSaU-24">
          <mxGeometry y="56" width="160" height="30" as="geometry" />
        </mxCell>
        <mxCell id="IsxfPacbKCR5MeKDaSaU-27" value="Prenom" style="text;strokeColor=none;fillColor=none;spacingLeft=4;spacingRight=4;overflow=hidden;rotatable=0;points=[[0,0.5],[1,0.5]];portConstraint=eastwest;fontSize=12;" vertex="1" parent="IsxfPacbKCR5MeKDaSaU-24">
          <mxGeometry y="86" width="160" height="30" as="geometry" />
        </mxCell>
        <mxCell id="IsxfPacbKCR5MeKDaSaU-28" value="sexe" style="text;strokeColor=none;fillColor=none;spacingLeft=4;spacingRight=4;overflow=hidden;rotatable=0;points=[[0,0.5],[1,0.5]];portConstraint=eastwest;fontSize=12;" vertex="1" parent="IsxfPacbKCR5MeKDaSaU-24">
          <mxGeometry y="116" width="160" height="30" as="geometry" />
        </mxCell>
        <mxCell id="IsxfPacbKCR5MeKDaSaU-29" value="Role" style="swimlane;fontStyle=1;childLayout=stackLayout;horizontal=1;startSize=26;horizontalStack=0;resizeParent=1;resizeParentMax=0;resizeLast=0;collapsible=1;marginBottom=0;align=center;fontSize=16;" vertex="1" parent="1">
          <mxGeometry x="730" y="965" width="160" height="116" as="geometry" />
        </mxCell>
        <mxCell id="IsxfPacbKCR5MeKDaSaU-30" value="ID_role &lt;&lt;PK&gt;&gt;" style="text;strokeColor=none;fillColor=none;spacingLeft=4;spacingRight=4;overflow=hidden;rotatable=0;points=[[0,0.5],[1,0.5]];portConstraint=eastwest;fontSize=12;fontStyle=1" vertex="1" parent="IsxfPacbKCR5MeKDaSaU-29">
          <mxGeometry y="26" width="160" height="30" as="geometry" />
        </mxCell>
        <mxCell id="IsxfPacbKCR5MeKDaSaU-31" value="Type" style="text;strokeColor=none;fillColor=none;spacingLeft=4;spacingRight=4;overflow=hidden;rotatable=0;points=[[0,0.5],[1,0.5]];portConstraint=eastwest;fontSize=12;" vertex="1" parent="IsxfPacbKCR5MeKDaSaU-29">
          <mxGeometry y="56" width="160" height="30" as="geometry" />
        </mxCell>
        <mxCell id="IsxfPacbKCR5MeKDaSaU-32" value="Raison sociale" style="text;strokeColor=none;fillColor=none;spacingLeft=4;spacingRight=4;overflow=hidden;rotatable=0;points=[[0,0.5],[1,0.5]];portConstraint=eastwest;fontSize=12;" vertex="1" parent="IsxfPacbKCR5MeKDaSaU-29">
          <mxGeometry y="86" width="160" height="30" as="geometry" />
        </mxCell>
        <mxCell id="IsxfPacbKCR5MeKDaSaU-33" value="" style="endArrow=none;html=1;rounded=0;entryX=1;entryY=0.5;entryDx=0;entryDy=0;exitX=0;exitY=0.5;exitDx=0;exitDy=0;" edge="1" parent="1" source="IsxfPacbKCR5MeKDaSaU-9" target="IsxfPacbKCR5MeKDaSaU-3">
          <mxGeometry width="50" height="50" relative="1" as="geometry">
            <mxPoint x="630" y="255" as="sourcePoint" />
            <mxPoint x="510" y="205" as="targetPoint" />
          </mxGeometry>
        </mxCell>
        <mxCell id="IsxfPacbKCR5MeKDaSaU-34" value="" style="endArrow=none;html=1;rounded=0;entryX=0;entryY=0.5;entryDx=0;entryDy=0;exitX=1;exitY=0.5;exitDx=0;exitDy=0;" edge="1" parent="1" source="IsxfPacbKCR5MeKDaSaU-51" target="IsxfPacbKCR5MeKDaSaU-26">
          <mxGeometry width="50" height="50" relative="1" as="geometry">
            <mxPoint x="750" y="345" as="sourcePoint" />
            <mxPoint x="800" y="295" as="targetPoint" />
          </mxGeometry>
        </mxCell>
        <mxCell id="IsxfPacbKCR5MeKDaSaU-35" value="" style="endArrow=none;html=1;rounded=0;" edge="1" parent="1">
          <mxGeometry width="50" height="50" relative="1" as="geometry">
            <mxPoint x="750" y="325" as="sourcePoint" />
            <mxPoint x="800" y="325" as="targetPoint" />
          </mxGeometry>
        </mxCell>
        <mxCell id="IsxfPacbKCR5MeKDaSaU-36" value="" style="endArrow=none;html=1;rounded=0;" edge="1" parent="1">
          <mxGeometry width="50" height="50" relative="1" as="geometry">
            <mxPoint x="800" y="325" as="sourcePoint" />
            <mxPoint x="800" y="195" as="targetPoint" />
          </mxGeometry>
        </mxCell>
        <mxCell id="IsxfPacbKCR5MeKDaSaU-37" value="" style="endArrow=none;html=1;rounded=0;" edge="1" parent="1">
          <mxGeometry width="50" height="50" relative="1" as="geometry">
            <mxPoint x="800" y="195" as="sourcePoint" />
            <mxPoint x="850" y="195" as="targetPoint" />
          </mxGeometry>
        </mxCell>
        <mxCell id="IsxfPacbKCR5MeKDaSaU-38" value="" style="endArrow=none;dashed=1;html=1;dashPattern=1 3;strokeWidth=2;rounded=0;exitX=0.5;exitY=0;exitDx=0;exitDy=0;" edge="1" parent="1" source="IsxfPacbKCR5MeKDaSaU-20">
          <mxGeometry width="50" height="50" relative="1" as="geometry">
            <mxPoint x="540" y="455" as="sourcePoint" />
            <mxPoint x="540" y="345" as="targetPoint" />
          </mxGeometry>
        </mxCell>
        <mxCell id="IsxfPacbKCR5MeKDaSaU-39" value="1...*" style="text;html=1;align=center;verticalAlign=middle;resizable=0;points=[];autosize=1;" vertex="1" parent="1">
          <mxGeometry x="1150" y="545" width="40" height="30" as="geometry" />
        </mxCell>
        <mxCell id="IsxfPacbKCR5MeKDaSaU-40" value="1...*" style="text;html=1;align=center;verticalAlign=middle;resizable=0;points=[];autosize=1;" vertex="1" parent="1">
          <mxGeometry x="550" y="320" width="40" height="30" as="geometry" />
        </mxCell>
        <mxCell id="IsxfPacbKCR5MeKDaSaU-41" value="1...*" style="text;html=1;align=center;verticalAlign=middle;resizable=0;points=[];autosize=1;" vertex="1" parent="1">
          <mxGeometry x="490" y="320" width="40" height="30" as="geometry" />
        </mxCell>
        <mxCell id="IsxfPacbKCR5MeKDaSaU-42" value="1...*" style="text;html=1;align=center;verticalAlign=middle;resizable=0;points=[];autosize=1;" vertex="1" parent="1">
          <mxGeometry x="820" y="635" width="40" height="30" as="geometry" />
        </mxCell>
        <mxCell id="IsxfPacbKCR5MeKDaSaU-43" value="1" style="text;html=1;align=center;verticalAlign=middle;resizable=0;points=[];autosize=1;" vertex="1" parent="1">
          <mxGeometry x="660" y="225" width="30" height="30" as="geometry" />
        </mxCell>
        <mxCell id="IsxfPacbKCR5MeKDaSaU-44" value="0...*" style="text;html=1;align=center;verticalAlign=middle;resizable=0;points=[];autosize=1;" vertex="1" parent="1">
          <mxGeometry x="810" y="168" width="40" height="30" as="geometry" />
        </mxCell>
        <mxCell id="IsxfPacbKCR5MeKDaSaU-45" value="1...*" style="text;html=1;align=center;verticalAlign=middle;resizable=0;points=[];autosize=1;" vertex="1" parent="1">
          <mxGeometry x="810" y="455" width="40" height="30" as="geometry" />
        </mxCell>
        <mxCell id="IsxfPacbKCR5MeKDaSaU-46" value="1" style="text;html=1;align=center;verticalAlign=middle;resizable=0;points=[];autosize=1;" vertex="1" parent="1">
          <mxGeometry x="755" y="295" width="30" height="30" as="geometry" />
        </mxCell>
        <mxCell id="IsxfPacbKCR5MeKDaSaU-47" value="Definir" style="text;html=1;align=center;verticalAlign=middle;resizable=0;points=[];autosize=1;" vertex="1" parent="1">
          <mxGeometry x="490" y="391" width="60" height="30" as="geometry" />
        </mxCell>
        <mxCell id="IsxfPacbKCR5MeKDaSaU-48" value="Associer" style="text;html=1;align=center;verticalAlign=middle;resizable=0;points=[];autosize=1;" vertex="1" parent="1">
          <mxGeometry x="740" y="245" width="70" height="30" as="geometry" />
        </mxCell>
        <mxCell id="IsxfPacbKCR5MeKDaSaU-49" value="Jouer" style="text;html=1;align=center;verticalAlign=middle;resizable=0;points=[];autosize=1;" vertex="1" parent="1">
          <mxGeometry x="825" y="615" width="50" height="30" as="geometry" />
        </mxCell>
        <mxCell id="IsxfPacbKCR5MeKDaSaU-50" style="edgeStyle=none;shape=connector;rounded=0;orthogonalLoop=1;jettySize=auto;html=1;exitX=0.5;exitY=1;exitDx=0;exitDy=0;entryX=0.5;entryY=0;entryDx=0;entryDy=0;labelBackgroundColor=default;strokeColor=default;align=center;verticalAlign=middle;fontFamily=Helvetica;fontSize=11;fontColor=default;endArrow=none;" edge="1" parent="1" source="IsxfPacbKCR5MeKDaSaU-51" target="IsxfPacbKCR5MeKDaSaU-56">
          <mxGeometry relative="1" as="geometry" />
        </mxCell>
        <mxCell id="IsxfPacbKCR5MeKDaSaU-51" value="&lt;div&gt;&lt;b&gt;&lt;font style=&quot;font-size: 16px;&quot;&gt;Casting&lt;/font&gt;&lt;/b&gt;&lt;/div&gt;&lt;div&gt;ID_cast &amp;lt;&amp;lt;PK&amp;gt;&amp;gt;&lt;/div&gt;&lt;div&gt;Ref_film &amp;lt;&amp;lt;FK&amp;gt;&amp;gt;&lt;/div&gt;&lt;div&gt;Ref_act &amp;lt;&amp;lt;FK&amp;gt;&amp;gt;&lt;/div&gt;&lt;div&gt;Ref_per &amp;lt;&amp;lt;FK&amp;gt;&amp;gt;&lt;/div&gt;" style="rhombus;whiteSpace=wrap;html=1;" vertex="1" parent="1">
          <mxGeometry x="640" y="485" width="340" height="190" as="geometry" />
        </mxCell>
        <mxCell id="IsxfPacbKCR5MeKDaSaU-52" value="1...*" style="text;html=1;align=center;verticalAlign=middle;resizable=0;points=[];autosize=1;" vertex="1" parent="1">
          <mxGeometry x="810" y="675" width="40" height="30" as="geometry" />
        </mxCell>
        <mxCell id="IsxfPacbKCR5MeKDaSaU-53" value="1...*" style="text;html=1;align=center;verticalAlign=middle;resizable=0;points=[];autosize=1;" vertex="1" parent="1">
          <mxGeometry x="980" y="555" width="40" height="30" as="geometry" />
        </mxCell>
        <mxCell id="IsxfPacbKCR5MeKDaSaU-54" value="1...*" style="text;html=1;align=center;verticalAlign=middle;resizable=0;points=[];autosize=1;" vertex="1" parent="1">
          <mxGeometry x="810" y="745" width="40" height="30" as="geometry" />
        </mxCell>
        <mxCell id="IsxfPacbKCR5MeKDaSaU-55" style="edgeStyle=none;shape=connector;rounded=0;orthogonalLoop=1;jettySize=auto;html=1;exitX=0.5;exitY=1;exitDx=0;exitDy=0;entryX=0.5;entryY=0;entryDx=0;entryDy=0;labelBackgroundColor=default;strokeColor=default;align=center;verticalAlign=middle;fontFamily=Helvetica;fontSize=11;fontColor=default;endArrow=none;" edge="1" parent="1" source="IsxfPacbKCR5MeKDaSaU-56" target="IsxfPacbKCR5MeKDaSaU-29">
          <mxGeometry relative="1" as="geometry" />
        </mxCell>
        <mxCell id="IsxfPacbKCR5MeKDaSaU-56" value="Personnage" style="swimlane;fontStyle=1;childLayout=stackLayout;horizontal=1;startSize=26;horizontalStack=0;resizeParent=1;resizeParentMax=0;resizeLast=0;collapsible=1;marginBottom=0;align=center;fontSize=16;" vertex="1" parent="1">
          <mxGeometry x="730" y="775" width="160" height="116" as="geometry" />
        </mxCell>
        <mxCell id="IsxfPacbKCR5MeKDaSaU-57" value="ID_perso &lt;&lt;PK&gt;&gt;" style="text;strokeColor=none;fillColor=none;spacingLeft=4;spacingRight=4;overflow=hidden;rotatable=0;points=[[0,0.5],[1,0.5]];portConstraint=eastwest;fontSize=12;fontStyle=1" vertex="1" parent="IsxfPacbKCR5MeKDaSaU-56">
          <mxGeometry y="26" width="160" height="30" as="geometry" />
        </mxCell>
        <mxCell id="IsxfPacbKCR5MeKDaSaU-58" value="Nom" style="text;strokeColor=none;fillColor=none;spacingLeft=4;spacingRight=4;overflow=hidden;rotatable=0;points=[[0,0.5],[1,0.5]];portConstraint=eastwest;fontSize=12;" vertex="1" parent="IsxfPacbKCR5MeKDaSaU-56">
          <mxGeometry y="56" width="160" height="30" as="geometry" />
        </mxCell>
        <mxCell id="IsxfPacbKCR5MeKDaSaU-59" value="Prénom" style="text;strokeColor=none;fillColor=none;spacingLeft=4;spacingRight=4;overflow=hidden;rotatable=0;points=[[0,0.5],[1,0.5]];portConstraint=eastwest;fontSize=12;" vertex="1" parent="IsxfPacbKCR5MeKDaSaU-56">
          <mxGeometry y="86" width="160" height="30" as="geometry" />
        </mxCell>
        <mxCell id="IsxfPacbKCR5MeKDaSaU-60" value="" style="endArrow=none;dashed=1;html=1;dashPattern=1 3;strokeWidth=2;rounded=0;exitX=0.5;exitY=0;exitDx=0;exitDy=0;" edge="1" parent="1">
          <mxGeometry width="50" height="50" relative="1" as="geometry">
            <mxPoint x="539.38" y="430" as="sourcePoint" />
            <mxPoint x="539.38" y="305" as="targetPoint" />
          </mxGeometry>
        </mxCell>
      </root>
    </mxGraphModel>
  </diagram>
</mxfile>
